<svg id="Layer_1" data-name="Layer 1" xmlns="http://www.w3.org/2000/svg" viewBox="0 0 16 16"><defs><style>.cls-1{fill:#111729;}.cls-2{fill:#ec008c;}</style></defs><title>Untitled-5werw</title><rect class="cls-1" width="16" height="16" rx="2.36"/><path class="cls-2" d="M10.82,9.6v0a.28.28,0,0,0-.24-.15.27.27,0,0,0-.28.27.24.24,0,0,0,0,.12,4.31,4.31,0,0,1-3.58,1.79H4.83V10.39h2a2.8,2.8,0,0,0,3-2.51A2.3,2.3,0,0,0,8.89,6.1a3.31,3.31,0,0,0-2.11-.72H5a.26.26,0,0,0-.23-.12.25.25,0,0,0-.22.12.25.25,0,0,0,0,.15.3.3,0,0,0,0,.16.27.27,0,0,0,.22.11A.25.25,0,0,0,5,5.69H6.78a3,3,0,0,1,1.91.65,2,2,0,0,1,.78,1.54,2.49,2.49,0,0,1-2.69,2.2H4.52v1.85H6.74a4.62,4.62,0,0,0,3.86-2,.27.27,0,0,0,.24-.27A.3.3,0,0,0,10.82,9.6Zm-6-4a.11.11,0,0,1,0-.22.11.11,0,1,1,0,.22Zm5.77,4.18a.12.12,0,0,1-.12-.12.11.11,0,0,1,.12-.11.11.11,0,0,1,.11.11A.12.12,0,0,1,10.57,9.82Z"/><path class="cls-2" d="M11,4.1A5.42,5.42,0,0,0,7.19,2.5H4.52V4.27H6.74A4.44,4.44,0,0,1,9.69,5.36a3.41,3.41,0,0,1,1.22,2.58,3,3,0,0,1,0,.52.26.26,0,0,0-.19.25A.28.28,0,0,0,11,9L11,9h0l0,0a.27.27,0,0,0,.14-.24.3.3,0,0,0-.05-.16,3.08,3.08,0,0,0,.05-.61A3.77,3.77,0,0,0,9.9,5.12,4.75,4.75,0,0,0,6.74,4H4.83V2.81H7.19a5.16,5.16,0,0,1,5.14,5.13,5.14,5.14,0,0,1-5.14,5.14H5A.24.24,0,0,0,4.79,13a.26.26,0,0,0-.23.12.24.24,0,0,0,0,.15.22.22,0,0,0,.05.16.28.28,0,0,0,.44,0H7.19A5.44,5.44,0,0,0,11,4.1Zm0,4.61a.12.12,0,0,1-.12.12.11.11,0,0,1-.11-.12A.11.11,0,0,1,11,8.6.11.11,0,0,1,11.07,8.71ZM4.79,13.35a.12.12,0,0,1-.12-.12.11.11,0,0,1,.12-.11.11.11,0,0,1,.11.11A.12.12,0,0,1,4.79,13.35Z"/></svg>